<svg width="19" height="19" viewBox="0 0 19 19" fill="none" xmlns="http://www.w3.org/2000/svg">
<path d="M8.0005 14.1163C8.78843 14.1163 9.56865 13.9611 10.2966 13.6596C11.0246 13.358 11.686 12.9161 12.2431 12.3589C12.8003 11.8018 13.2423 11.1403 13.5438 10.4124C13.8453 9.68443 14.0005 8.90422 14.0005 8.11629C14.0005 7.32836 13.8453 6.54814 13.5438 5.82019C13.2423 5.09223 12.8003 4.4308 12.2431 3.87365C11.686 3.31649 11.0246 2.87454 10.2966 2.57301C9.56865 2.27148 8.78843 2.11629 8.0005 2.11629C6.4092 2.11629 4.88308 2.74843 3.75786 3.87365C2.63264 4.99886 2.0005 6.52499 2.0005 8.11629C2.0005 9.70759 2.63264 11.2337 3.75786 12.3589C4.88308 13.4841 6.4092 14.1163 8.0005 14.1163ZM14.3205 13.0223L17.9005 16.6023C17.9959 16.6946 18.072 16.805 18.1244 16.927C18.1767 17.0491 18.2042 17.1803 18.2052 17.3131C18.2063 17.4459 18.1809 17.5775 18.1305 17.7004C18.0802 17.8233 18.0058 17.9349 17.9119 18.0287C17.8179 18.1225 17.7062 18.1967 17.5833 18.2469C17.4604 18.2971 17.3287 18.3223 17.1959 18.321C17.0631 18.3198 16.9319 18.2921 16.8099 18.2396C16.688 18.1871 16.5777 18.1109 16.4855 18.0153L12.9055 14.4353C11.298 15.6831 9.2753 16.2715 7.24926 16.0805C5.22322 15.8895 3.34611 14.9336 2.00005 13.4073C0.654 11.8811 -0.0598121 9.89923 0.00392902 7.86521C0.0676701 5.83119 0.904173 3.89791 2.34315 2.45893C3.78213 1.01996 5.7154 0.183454 7.74943 0.119713C9.78345 0.0559716 11.7653 0.769784 13.2916 2.11584C14.8178 3.46189 15.7737 5.339 15.9647 7.36504C16.1557 9.39108 15.5674 11.4137 14.3195 13.0213L14.3205 13.0223Z" fill="#181B19"/>
</svg>
